<svg width="372" height="391" viewBox="0 0 372 391" fill="none" xmlns="http://www.w3.org/2000/svg">
<path d="M369.765 246.865C357.517 170.821 283.727 161.804 220.532 162.33C210.538 162.405 199.116 163.232 187.093 163.983C131.713 167.891 62.732 172.775 49.8075 114.464C44.6978 91.3201 49.8075 65.6213 63.6337 45.7085C75.7317 28.2754 93.1647 17.1543 112.702 14.374L115.257 13.9983C181.908 5.65748 207.532 82.829 208.584 86.1353L220.457 82.303C220.156 81.4013 190.775 -8.01848 113.679 1.59978L110.898 1.97549C87.9048 5.20663 67.466 18.2063 53.264 38.57C37.5592 61.263 31.6981 90.6438 37.4841 117.094C45.2989 152.336 69.7203 168.191 99.2514 174.578C97.5231 174.804 95.7197 175.179 94.0665 175.78C83.3963 179.387 76.7837 188.48 71.0729 197.497C54.0155 223.872 38.1603 251.524 24.0335 279.628C22.6809 282.408 21.1781 285.188 19.6753 288.119C7.2016 312.014 -8.35292 341.771 5.32305 369.573C12.0107 383.249 22.5307 390.463 35.9812 390.463C37.2586 390.463 38.6112 390.388 39.9638 390.238C77.0091 386.556 85.5002 359.655 86.6274 355.221L99.4768 322.534L98.8757 322.309H86.2517L74.9051 351.088L74.6045 351.99C74.4543 352.892 68.9689 374.833 38.7615 377.839C28.8427 378.816 21.5539 374.383 16.5944 364.238C5.7739 342.071 19.0741 316.598 30.9467 293.98C32.4495 291.049 33.9524 288.194 35.3801 285.338C49.3567 257.611 64.9111 230.409 81.7431 204.335C86.3268 197.196 91.3614 190.058 98.1994 187.728C109.771 183.896 124.95 193.364 131.938 204.635C132.314 205.161 200.168 314.344 200.168 314.344C204.526 321.407 206.705 329.447 206.405 337.713C205.728 358.603 197.463 369.423 181.232 370.851C164.625 372.354 147.944 362.66 139.979 346.73C136.146 339.141 132.69 328.771 128.933 317.8C124.499 304.876 119.991 291.5 114.28 280.454C108.043 268.356 100.378 262.195 91.6619 261.969H91.2111C76.7837 261.969 66.6394 278.801 65.5123 280.755L40.7152 341.846H54.316L76.4831 286.691C79.038 282.408 85.5002 274.217 91.2862 274.518C94.9682 274.593 99.1762 278.726 103.009 286.165C108.269 296.384 112.627 309.309 116.985 321.783C120.892 333.204 124.574 344.025 128.707 352.366C139.077 372.88 160.568 385.353 182.284 383.324C195.434 382.197 217.601 374.758 218.878 338.164C218.954 335.759 218.878 333.279 218.653 330.875V174.879C219.329 174.804 220.006 174.804 220.682 174.804C282.224 174.127 346.696 182.543 357.366 248.819C362.251 278.801 352.783 306.829 331.442 325.69C314.159 341.019 288.01 351.013 268.623 338.915L262.01 349.51C270.051 354.545 278.993 356.799 287.935 356.799C306.57 356.799 325.731 347.481 339.708 335.008C364.355 313.292 375.326 281.13 369.765 246.865ZM206.104 300.292C190.775 275.645 142.834 198.474 142.533 197.948C137.198 189.306 128.482 181.717 118.713 177.584C141.782 179.763 166.429 178.035 187.995 176.532C194.232 176.081 200.393 175.63 206.104 175.33V300.292Z" fill="url(#paint0_linear_0_36)"/>
<defs>
<linearGradient id="paint0_linear_0_36" x1="344.886" y1="434.839" x2="25.0045" y2="133.875" gradientUnits="userSpaceOnUse">
<stop stop-color="#27397E"/>
<stop offset="0.2942" stop-color="#1D5191"/>
<stop offset="0.9128" stop-color="#048EC3"/>
<stop offset="0.9951" stop-color="#0097CA"/>
</linearGradient>
</defs>
</svg>
